<svg width="512" height="512" viewBox="0 0 64 64" xmlns="http://www.w3.org/2000/svg">
  <circle cx="32" cy="32" r="30" fill="#e0e0e0" />
  <path d="M48.9,16H39a1,1,0,0,0-1,1v5H26V17a1,1,0,0,0-1-1H15.1A4.06,4.06,0,0,0,11,20.1V43.9A4.06,4.06,0,0,0,15.1,48H25a1,1,0,0,0,1-1V42H38v5a1,1,0,0,0,1,1h9.9A4.06,4.06,0,0,0,53,43.9V20.1A4.06,4.06,0,0,0,48.9,16ZM24,40H16V24h8Zm20,0H40V24h4ZM16,22h8V18H16Zm28,0H40V18h4Z" fill="#000"/>
  <path d="M32 24H28V36H32V24ZM36 24H40V36H36V24ZM28 40H24V42H28V40ZM40 40H44V42H40V40Z" fill="#000"/>
</svg>
